<svg width="32" height="32" viewBox="0 0 32 32" fill="none" xmlns="http://www.w3.org/2000/svg">
<rect width="32" height="32" rx="5" fill="#34445A"/>
<g filter="url(#filter0_i_2216_3)">
<path d="M17.6619 7.54545H21.3097V19.7159C21.3097 20.8409 21.0568 21.8182 20.5511 22.6477C20.0511 23.4773 19.3551 24.1165 18.4631 24.5653C17.571 25.0142 16.5341 25.2386 15.3523 25.2386C14.3011 25.2386 13.3466 25.054 12.4886 24.6847C11.6364 24.3097 10.9602 23.7415 10.4602 22.9801C9.96023 22.2131 9.71307 21.25 9.71875 20.0909H13.392C13.4034 20.5511 13.4972 20.946 13.6733 21.2756C13.8551 21.5994 14.1023 21.8494 14.4148 22.0256C14.733 22.196 15.108 22.2812 15.5398 22.2812C15.9943 22.2812 16.3778 22.1847 16.6903 21.9915C17.0085 21.7926 17.25 21.5028 17.4148 21.1222C17.5795 20.7415 17.6619 20.2727 17.6619 19.7159V7.54545Z" fill="white"/>
</g>
<defs>
<filter id="filter0_i_2216_3" x="9.71021" y="7.54547" width="12.5994" height="18.6932" filterUnits="userSpaceOnUse" color-interpolation-filters="sRGB">
<feFlood flood-opacity="0" result="BackgroundImageFix"/>
<feBlend mode="normal" in="SourceGraphic" in2="BackgroundImageFix" result="shape"/>
<feColorMatrix in="SourceAlpha" type="matrix" values="0 0 0 0 0 0 0 0 0 0 0 0 0 0 0 0 0 0 127 0" result="hardAlpha"/>
<feOffset dx="1" dy="1"/>
<feGaussianBlur stdDeviation="0.5"/>
<feComposite in2="hardAlpha" operator="arithmetic" k2="-1" k3="1"/>
<feColorMatrix type="matrix" values="0 0 0 0 0 0 0 0 0 0 0 0 0 0 0 0 0 0 0.25 0"/>
<feBlend mode="normal" in2="shape" result="effect1_innerShadow_2216_3"/>
</filter>
</defs>
</svg>
