<svg width="4320" height="1440" viewBox="0 0 4320 1440" fill="none" xmlns="http://www.w3.org/2000/svg">
<rect x="0.5" y="0.5" width="4319" height="1439" stroke="white"/>
<path d="M3285 1440H1125V0H3285V1440ZM1806.7 825.022C1801.4 825.022 1796.61 826.168 1792.33 828.46C1788.06 830.733 1784.67 834.095 1782.16 838.546C1779.66 842.978 1778.41 848.432 1778.41 854.909C1778.41 861.348 1779.66 866.793 1782.16 871.244C1784.67 875.676 1788.06 879.048 1792.33 881.358C1796.61 883.65 1801.4 884.796 1806.7 884.796C1811.97 884.796 1816.74 883.659 1821.02 881.387C1825.3 879.095 1828.7 875.733 1831.22 871.301C1833.74 866.85 1835 861.386 1835 854.909C1835 848.432 1833.74 842.978 1831.22 838.546C1828.7 834.095 1825.3 830.733 1821.02 828.46C1816.74 826.168 1811.97 825.022 1806.7 825.022ZM2500.84 825.022C2495.54 825.022 2490.75 826.168 2486.47 828.46C2482.21 830.733 2478.81 834.095 2476.3 838.546C2473.8 842.978 2472.55 848.432 2472.55 854.909C2472.55 861.348 2473.8 866.793 2476.3 871.244C2478.81 875.676 2482.21 879.048 2486.47 881.358C2490.75 883.65 2495.54 884.796 2500.84 884.796C2506.11 884.796 2510.88 883.659 2515.16 881.387C2519.44 879.095 2522.84 875.733 2525.36 871.301C2527.88 866.85 2529.14 861.386 2529.14 854.909C2529.14 848.432 2527.88 842.978 2525.36 838.546C2522.84 834.095 2519.44 830.733 2515.16 828.46C2510.88 826.168 2506.11 825.022 2500.84 825.022ZM1748.87 825.022C1744.27 825.022 1740.19 825.8 1736.63 827.353C1733.09 828.906 1730.31 831.074 1728.31 833.858C1726.32 836.623 1725.33 839.853 1725.35 843.546C1725.33 848.091 1726.8 851.68 1729.75 854.312C1732.73 856.926 1736.79 858.792 1741.94 859.909L1747.74 861.159C1749.9 861.633 1751.61 862.144 1752.88 862.693C1754.15 863.224 1755.06 863.83 1755.61 864.512C1756.18 865.175 1756.47 865.951 1756.49 866.841C1756.47 867.788 1756.17 868.631 1755.58 869.369C1754.99 870.108 1754.13 870.686 1752.99 871.103C1751.86 871.519 1750.45 871.728 1748.76 871.728C1746.75 871.728 1745.02 871.415 1743.56 870.79C1742.12 870.165 1741.01 869.246 1740.21 868.034C1739.41 866.822 1738.97 865.326 1738.87 863.546H1723.87C1723.89 868.413 1724.93 872.409 1727 875.534C1729.08 878.64 1732 880.941 1735.75 882.438C1739.52 883.934 1743.93 884.682 1748.99 884.682C1753.91 884.682 1758.13 883.991 1761.63 882.608C1765.15 881.226 1767.86 879.208 1769.75 876.557C1771.65 873.905 1772.61 870.667 1772.62 866.841C1772.61 864.625 1772.25 862.579 1771.54 860.704C1770.86 858.829 1769.79 857.144 1768.33 855.647C1766.88 854.132 1765 852.817 1762.71 851.699C1760.42 850.582 1757.66 849.682 1754.44 849L1749.67 847.978C1748.29 847.693 1747.09 847.372 1746.09 847.012C1745.09 846.652 1744.26 846.254 1743.62 845.818C1742.97 845.364 1742.5 844.862 1742.2 844.312C1741.91 843.744 1741.79 843.11 1741.83 842.409C1741.85 841.557 1742.1 840.8 1742.6 840.137C1743.09 839.474 1743.85 838.953 1744.87 838.574C1745.91 838.177 1747.25 837.978 1748.87 837.978C1751.43 837.978 1753.33 838.508 1754.58 839.568C1755.85 840.629 1756.56 842.106 1756.71 844H1771.83C1771.81 840.193 1770.86 836.869 1768.99 834.028C1767.13 831.168 1764.49 828.953 1761.06 827.381C1757.63 825.809 1753.57 825.022 1748.87 825.022ZM1842.3 825.818V884H1858.1V861.272H1880.71V848.546H1858.1V838.546H1883.21V825.818H1842.3ZM1887.43 825.818V838.546H1904.93V884H1920.5V838.546H1938V825.818H1887.43ZM1941.56 825.818L1958.72 884H1973.83L1983.72 851.5H1984.17L1994.06 884H2009.17L2026.33 825.818H2008.72L2000.76 861.728H2000.31L1990.88 825.818H1977.01L1967.58 861.613H1967.13L1959.17 825.818H1941.56ZM2041.92 825.818L2022.72 884H2039.76L2043.12 872.863H2062.31L2065.67 884H2082.72L2063.51 825.818H2041.92ZM2088.32 825.818V884H2104.12V864.796H2109.58L2119.8 884H2136.96L2125.14 862.307C2128.16 860.858 2130.53 858.801 2132.24 856.131C2134.1 853.271 2135.02 849.757 2135.02 845.591C2135.02 841.462 2134.13 837.92 2132.33 834.966C2130.53 832.011 2128.01 829.748 2124.77 828.176C2121.53 826.604 2117.75 825.818 2113.43 825.818H2088.32ZM2141.76 825.818V884H2183.58V871.272H2157.55V861.272H2181.53V848.546H2157.55V838.546H2183.69V825.818H2141.76ZM2207.46 825.818V884H2229.85C2235.76 884 2240.88 882.845 2245.22 880.534C2249.55 878.205 2252.91 874.871 2255.27 870.534C2257.64 866.178 2258.82 860.97 2258.82 854.909C2258.82 848.849 2257.63 843.65 2255.25 839.312C2252.88 834.957 2249.51 831.623 2245.13 829.312C2240.78 826.983 2235.6 825.818 2229.62 825.818H2207.46ZM2266.13 825.818V884H2307.95V871.272H2281.93V861.272H2305.91V848.546H2281.93V838.546H2308.06V825.818H2266.13ZM2313.97 825.818L2333.17 884H2354.76L2373.97 825.818H2356.13L2344.19 866.841H2343.74L2331.81 825.818H2313.97ZM2379.57 825.818V884H2421.39V871.272H2395.37V861.272H2419.34V848.546H2395.37V838.546H2421.5V825.818H2379.57ZM2429.34 825.818V884H2468.65V871.272H2445.13V825.818H2429.34ZM2536.45 825.818V884H2552.24V866.728H2560.99C2565.42 866.727 2569.3 865.904 2572.61 864.256C2575.94 862.608 2578.53 860.259 2580.37 857.21C2582.22 854.161 2583.15 850.553 2583.15 846.387C2583.15 842.258 2582.25 838.65 2580.45 835.562C2578.65 832.475 2576.13 830.08 2572.89 828.375C2569.66 826.67 2565.88 825.818 2561.56 825.818H2536.45ZM2588.95 825.818V884H2630.76V871.272H2604.74V861.272H2628.72V848.546H2604.74V838.546H2630.88V825.818H2588.95ZM2638.71 825.818V884H2654.51V864.796H2659.97L2670.19 884H2687.35L2675.53 862.307C2678.55 860.858 2680.92 858.801 2682.63 856.131C2684.49 853.271 2685.42 849.757 2685.42 845.591C2685.42 841.462 2684.52 837.92 2682.72 834.966C2680.92 832.011 2678.4 829.748 2675.16 828.176C2671.92 826.604 2668.14 825.818 2663.82 825.818H2638.71ZM1806.7 838.772C1809.31 838.772 1811.51 839.398 1813.29 840.647C1815.09 841.879 1816.45 843.697 1817.35 846.103C1818.28 848.489 1818.75 851.424 1818.75 854.909C1818.75 858.394 1818.28 861.339 1817.35 863.744C1816.45 866.131 1815.09 867.949 1813.29 869.199C1811.51 870.43 1809.31 871.046 1806.7 871.046C1804.09 871.046 1801.88 870.43 1800.08 869.199C1798.3 867.949 1796.95 866.131 1796.02 863.744C1795.11 861.339 1794.66 858.394 1794.66 854.909C1794.66 851.424 1795.11 848.489 1796.02 846.103C1796.95 843.697 1798.3 841.879 1800.08 840.647C1801.88 839.398 1804.09 838.772 1806.7 838.772ZM2500.84 838.772C2503.46 838.772 2505.65 839.398 2507.43 840.647C2509.23 841.879 2510.59 843.697 2511.5 846.103C2512.42 848.489 2512.89 851.424 2512.89 854.909C2512.89 858.394 2512.42 861.339 2511.5 863.744C2510.59 866.131 2509.23 867.949 2507.43 869.199C2505.65 870.43 2503.46 871.046 2500.84 871.046C2498.23 871.046 2496.02 870.43 2494.22 869.199C2492.44 867.949 2491.09 866.131 2490.16 863.744C2489.25 861.339 2488.8 858.394 2488.8 854.909C2488.8 851.424 2489.25 848.489 2490.16 846.103C2491.09 843.697 2492.44 841.879 2494.22 840.647C2496.02 839.398 2498.23 838.772 2500.84 838.772ZM2228.82 839.228C2231.85 839.228 2234.41 839.691 2236.5 840.619C2238.6 841.547 2240.19 843.148 2241.27 845.421C2242.37 847.694 2242.92 850.856 2242.92 854.909C2242.92 858.962 2242.38 862.125 2241.3 864.397C2240.24 866.67 2238.68 868.271 2236.64 869.199C2234.61 870.127 2232.16 870.591 2229.28 870.591H2223.26V839.228H2228.82ZM2052.94 841.841L2058.74 861.046H2046.69L2052.49 841.841H2052.94ZM2557.81 838.432C2559.66 838.432 2561.25 838.754 2562.55 839.397C2563.88 840.022 2564.89 840.932 2565.59 842.125C2566.31 843.299 2566.67 844.72 2566.67 846.387C2566.67 848.034 2566.31 849.464 2565.59 850.676C2564.89 851.888 2563.88 852.825 2562.55 853.488C2561.25 854.132 2559.66 854.454 2557.81 854.454H2552.24V838.432H2557.81ZM2660.07 838.432C2661.93 838.432 2663.51 838.688 2664.82 839.199C2666.14 839.692 2667.16 840.468 2667.86 841.528C2668.58 842.57 2668.94 843.924 2668.94 845.591C2668.94 847.239 2668.58 848.574 2667.86 849.597C2667.16 850.619 2666.14 851.367 2664.82 851.841C2663.51 852.295 2661.93 852.522 2660.07 852.522H2654.51V838.432H2660.07ZM2109.68 838.432C2111.54 838.432 2113.12 838.688 2114.43 839.199C2115.75 839.692 2116.77 840.468 2117.47 841.528C2118.19 842.57 2118.55 843.924 2118.55 845.591C2118.55 847.239 2118.19 848.574 2117.47 849.597C2116.77 850.619 2115.75 851.367 2114.43 851.841C2113.12 852.295 2111.54 852.522 2109.68 852.522H2104.12V838.432H2109.68ZM1384.35 743.835C1384.31 747.201 1383.82 750.036 1382.88 752.337C1381.94 754.595 1380.56 756.3 1378.72 757.45C1376.93 758.601 1374.72 759.176 1372.08 759.176C1369.48 759.176 1367.26 758.623 1365.43 757.515C1363.64 756.364 1362.23 754.659 1361.21 752.4C1360.23 750.142 1359.68 747.372 1359.55 744.091H1324.01C1323.97 754.148 1326.01 762.33 1330.14 768.637C1334.28 774.901 1339.82 779.503 1346.76 782.443C1353.71 785.341 1361.38 786.79 1369.78 786.79C1379.45 786.79 1387.99 785 1395.41 781.421C1402.86 777.799 1408.7 772.77 1412.92 766.335C1417.18 759.858 1419.34 752.358 1419.38 743.835V654.091H1384.35V743.835ZM1635.97 652.301C1624.21 652.301 1613.56 654.879 1604.01 660.035C1594.47 665.149 1586.88 672.713 1581.26 682.728C1575.63 692.699 1572.82 704.972 1572.82 719.546C1572.82 734.034 1575.57 746.286 1581.06 756.3C1586.6 766.314 1594.13 773.899 1603.63 779.056C1613.17 784.212 1623.95 786.79 1635.97 786.79C1645.56 786.79 1653.98 785.319 1661.22 782.379C1668.46 779.439 1674.54 775.561 1679.44 770.746C1684.38 765.888 1688.2 760.604 1690.88 754.894C1693.56 749.141 1695.12 743.494 1695.55 737.954L1659.5 737.699C1659.07 740.512 1658.24 743.047 1657 745.306C1655.81 747.521 1654.25 749.418 1652.34 750.994C1650.42 752.571 1648.16 753.785 1645.56 754.638C1642.96 755.447 1640.02 755.853 1636.74 755.853C1630.99 755.853 1626.06 754.51 1621.97 751.825C1617.88 749.098 1614.75 745.05 1612.58 739.681C1610.45 734.269 1609.38 727.557 1609.38 719.546C1609.38 711.961 1610.43 705.462 1612.51 700.05C1614.64 694.638 1617.75 690.483 1621.85 687.585C1625.98 684.687 1631.03 683.238 1637 683.238C1640.4 683.238 1643.45 683.729 1646.14 684.709C1648.82 685.646 1651.1 687.01 1652.97 688.8C1654.89 690.547 1656.38 692.635 1657.45 695.063C1658.56 697.492 1659.24 700.199 1659.5 703.182H1695.55C1694.86 695.043 1692.93 687.819 1689.73 681.513C1686.53 675.206 1682.31 669.901 1677.07 665.597C1671.83 661.25 1665.74 657.947 1658.79 655.688C1651.85 653.43 1644.24 652.301 1635.97 652.301ZM2550.87 652.301C2540.51 652.301 2531.33 654.049 2523.32 657.543C2515.35 661.037 2509.1 665.917 2504.59 672.181C2500.11 678.402 2497.9 685.668 2497.94 693.978C2497.9 704.205 2501.2 712.28 2507.85 718.203C2514.54 724.084 2523.68 728.282 2535.27 730.796L2548.31 733.608C2553.17 734.674 2557.02 735.824 2559.88 737.06C2562.73 738.253 2564.78 739.616 2566.01 741.15C2567.29 742.642 2567.95 744.389 2568 746.392C2567.95 748.522 2567.27 750.419 2565.95 752.081C2564.63 753.743 2562.69 755.043 2560.13 755.98C2557.58 756.918 2554.4 757.387 2550.61 757.387C2546.09 757.387 2542.19 756.684 2538.91 755.277C2535.67 753.871 2533.16 751.804 2531.37 749.077C2529.58 746.35 2528.58 742.983 2528.37 738.978H2494.62C2494.66 749.929 2497 758.921 2501.65 765.952C2506.33 772.941 2512.9 778.118 2521.33 781.484C2529.81 784.851 2539.74 786.534 2551.12 786.534C2562.2 786.534 2571.68 784.979 2579.57 781.868C2587.49 778.757 2593.59 774.219 2597.85 768.253C2602.11 762.287 2604.26 755 2604.3 746.392C2604.26 741.406 2603.45 736.804 2601.87 732.585C2600.34 728.366 2597.93 724.573 2594.65 721.207C2591.37 717.798 2587.15 714.836 2582 712.322C2576.84 709.808 2570.64 707.784 2563.39 706.25L2552.66 703.949C2549.54 703.31 2546.86 702.585 2544.6 701.775C2542.34 700.966 2540.49 700.071 2539.04 699.091C2537.59 698.068 2536.53 696.939 2535.84 695.703C2535.21 694.425 2534.93 692.997 2535.01 691.421C2535.06 689.503 2535.63 687.798 2536.74 686.307C2537.85 684.815 2539.55 683.643 2541.85 682.791C2544.2 681.896 2547.2 681.449 2550.87 681.449C2556.62 681.449 2560.9 682.642 2563.71 685.028C2566.57 687.415 2568.17 690.739 2568.51 695H2602.51C2602.47 686.435 2600.34 678.956 2596.12 672.563C2591.94 666.129 2586 661.143 2578.29 657.606C2570.57 654.07 2561.43 652.301 2550.87 652.301ZM1431.87 785H1470.23L1477.79 759.943H1520.96L1528.52 785H1566.87L1523.66 654.091H1475.08L1431.87 785ZM1711.67 785H1747.21V751.25L1758.97 735.909L1788.37 785H1830.82L1785.56 712.387L1829.79 654.091H1788.37L1749 707.017H1747.21V654.091H1711.67V785ZM1876.2 785H1911.74V746.137H1931.43C1941.4 746.137 1950.11 744.283 1957.57 740.575C1965.07 736.868 1970.89 731.583 1975.02 724.723C1979.2 717.862 1981.29 709.744 1981.29 700.369C1981.29 691.079 1979.26 682.962 1975.21 676.016C1971.17 669.07 1965.5 663.679 1958.21 659.844C1950.92 656.009 1942.42 654.091 1932.71 654.091H1876.2V785ZM1994.33 785H2088.42V756.363H2029.87V733.863H2083.81V705.228H2029.87V682.728H2088.67V654.091H1994.33V785ZM2102.72 682.728H2142.09V785H2177.12V682.728H2216.5V654.091H2102.72V682.728ZM2229.87 785H2323.96V756.363H2265.41V733.863H2319.36V705.228H2265.41V682.728H2324.22V654.091H2229.87V785ZM2341.85 785H2377.39V741.79H2389.69L2412.67 785H2451.28L2424.69 736.19C2431.48 732.932 2436.81 728.3 2440.67 722.294C2444.84 715.859 2446.93 707.954 2446.93 698.579C2446.93 689.29 2444.91 681.32 2440.86 674.673C2436.81 668.025 2431.14 662.933 2423.86 659.396C2416.57 655.86 2408.07 654.091 2398.35 654.091H2341.85V785ZM2617.82 785H2652.59V708.807H2653.62L2682.77 783.978H2703.73L2732.88 709.318H2733.9V785H2768.67V654.091H2724.44L2694.02 728.238H2692.48L2662.06 654.091H2617.82V785ZM2785.52 785H2821.06V654.091H2785.52V785ZM2834.32 682.728H2873.7V785H2908.72V682.728H2948.1V654.091H2834.32V682.728ZM2961.47 785H2997.01V733.863H3044.06V785H3079.6V654.091H3044.06V705.228H2997.01V654.091H2961.47V785ZM1512.93 733.353H1485.82L1498.86 690.142H1499.89L1512.93 733.353ZM1924.27 682.472C1928.45 682.472 1932 683.196 1934.94 684.645C1937.93 686.051 1940.21 688.097 1941.78 690.781C1943.4 693.423 1944.21 696.619 1944.21 700.369C1944.21 704.077 1943.4 707.294 1941.78 710.021C1940.21 712.749 1937.93 714.858 1934.94 716.35C1932 717.798 1928.45 718.522 1924.27 718.522H1911.74V682.472H1924.27ZM2389.91 682.472C2394.09 682.472 2397.65 683.047 2400.59 684.197C2403.57 685.305 2405.85 687.052 2407.43 689.438C2409.05 691.782 2409.86 694.829 2409.86 698.579C2409.86 702.286 2409.05 705.292 2407.43 707.593C2405.85 709.894 2403.57 711.576 2400.59 712.642C2397.65 713.664 2394.09 714.176 2389.91 714.176H2377.39V682.472H2389.91Z" fill="black"/>
<rect width="1125" height="1440" fill="black"/>
<rect x="3240" width="1080" height="1440" fill="black"/>
</svg>
