<svg width="2846" height="9508" viewBox="0 0 2846 9508" fill="none" xmlns="http://www.w3.org/2000/svg">
<path d="M2508 5474H348V4034H2508V5474ZM1068.7 4859.02C1063.4 4859.02 1058.61 4860.17 1054.33 4862.46C1050.06 4864.73 1046.67 4868.1 1044.16 4872.55C1041.66 4876.98 1040.41 4882.43 1040.41 4888.91C1040.41 4895.35 1041.66 4900.79 1044.16 4905.24C1046.67 4909.68 1050.06 4913.05 1054.33 4915.36C1058.61 4917.65 1063.4 4918.8 1068.7 4918.8C1073.97 4918.8 1078.74 4917.66 1083.02 4915.39C1087.3 4913.1 1090.7 4909.73 1093.22 4905.3C1095.74 4900.85 1097 4895.39 1097 4888.91C1097 4882.43 1095.74 4876.98 1093.22 4872.55C1090.7 4868.1 1087.3 4864.73 1083.02 4862.46C1078.74 4860.17 1073.97 4859.02 1068.7 4859.02ZM1762.84 4859.02C1757.54 4859.02 1752.75 4860.17 1748.47 4862.46C1744.21 4864.73 1740.81 4868.1 1738.3 4872.55C1735.8 4876.98 1734.55 4882.43 1734.55 4888.91C1734.55 4895.35 1735.8 4900.79 1738.3 4905.24C1740.81 4909.68 1744.21 4913.05 1748.47 4915.36C1752.75 4917.65 1757.54 4918.8 1762.84 4918.8C1768.11 4918.8 1772.88 4917.66 1777.16 4915.39C1781.44 4913.1 1784.84 4909.73 1787.36 4905.3C1789.88 4900.85 1791.14 4895.39 1791.14 4888.91C1791.14 4882.43 1789.88 4876.98 1787.36 4872.55C1784.84 4868.1 1781.44 4864.73 1777.16 4862.46C1772.88 4860.17 1768.11 4859.02 1762.84 4859.02ZM1010.87 4859.02C1006.27 4859.02 1002.19 4859.8 998.63 4861.35C995.088 4862.91 992.313 4865.07 990.306 4867.86C988.317 4870.62 987.333 4873.85 987.352 4877.55C987.333 4882.09 988.8 4885.68 991.755 4888.31C994.728 4890.93 998.791 4892.79 1003.94 4893.91L1009.74 4895.16C1011.9 4895.63 1013.61 4896.14 1014.88 4896.69C1016.15 4897.22 1017.06 4897.83 1017.61 4898.51C1018.18 4899.17 1018.47 4899.95 1018.49 4900.84C1018.47 4901.79 1018.17 4902.63 1017.58 4903.37C1016.99 4904.11 1016.13 4904.69 1014.99 4905.1C1013.86 4905.52 1012.45 4905.73 1010.76 4905.73C1008.75 4905.73 1007.02 4905.42 1005.56 4904.79C1004.12 4904.17 1003.01 4903.25 1002.21 4902.03C1001.41 4900.82 1000.97 4899.33 1000.87 4897.55H985.874C985.893 4902.41 986.935 4906.41 988.999 4909.53C991.082 4912.64 993.999 4914.94 997.749 4916.44C1001.52 4917.93 1005.93 4918.68 1010.99 4918.68C1015.91 4918.68 1020.13 4917.99 1023.63 4916.61C1027.15 4915.23 1029.86 4913.21 1031.75 4910.56C1033.65 4907.91 1034.61 4904.67 1034.62 4900.84C1034.61 4898.62 1034.25 4896.58 1033.54 4894.7C1032.86 4892.83 1031.79 4891.14 1030.33 4889.65C1028.88 4888.13 1027 4886.82 1024.71 4885.7C1022.42 4884.58 1019.66 4883.68 1016.44 4883L1011.67 4881.98C1010.29 4881.69 1009.09 4881.37 1008.09 4881.01C1007.09 4880.65 1006.26 4880.25 1005.62 4879.82C1004.97 4879.36 1004.5 4878.86 1004.2 4878.31C1003.91 4877.74 1003.79 4877.11 1003.83 4876.41C1003.85 4875.56 1004.1 4874.8 1004.6 4874.14C1005.09 4873.47 1005.85 4872.95 1006.87 4872.57C1007.91 4872.18 1009.25 4871.98 1010.87 4871.98C1013.43 4871.98 1015.33 4872.51 1016.58 4873.57C1017.85 4874.63 1018.56 4876.11 1018.71 4878H1033.83C1033.81 4874.19 1032.86 4870.87 1030.99 4868.03C1029.13 4865.17 1026.49 4862.95 1023.06 4861.38C1019.63 4859.81 1015.57 4859.02 1010.87 4859.02ZM1104.3 4859.82V4918H1120.1V4895.27H1142.71V4882.55H1120.1V4872.55H1145.21V4859.82H1104.3ZM1149.43 4859.82V4872.55H1166.93V4918H1182.5V4872.55H1200V4859.82H1149.43ZM1203.56 4859.82L1220.72 4918H1235.83L1245.72 4885.5H1246.17L1256.06 4918H1271.17L1288.33 4859.82H1270.72L1262.76 4895.73H1262.31L1252.88 4859.82H1239.01L1229.58 4895.61H1229.13L1221.17 4859.82H1203.56ZM1303.92 4859.82L1284.72 4918H1301.76L1305.12 4906.86H1324.31L1327.67 4918H1344.72L1325.51 4859.82H1303.92ZM1350.32 4859.82V4918H1366.12V4898.8H1371.58L1381.8 4918H1398.96L1387.14 4896.31C1390.16 4894.86 1392.53 4892.8 1394.24 4890.13C1396.1 4887.27 1397.02 4883.76 1397.02 4879.59C1397.02 4875.46 1396.13 4871.92 1394.33 4868.97C1392.53 4866.01 1390.01 4863.75 1386.77 4862.18C1383.53 4860.6 1379.75 4859.82 1375.43 4859.82H1350.32ZM1403.76 4859.82V4918H1445.58V4905.27H1419.55V4895.27H1443.53V4882.55H1419.55V4872.55H1445.69V4859.82H1403.76ZM1469.46 4859.82V4918H1491.85C1497.76 4918 1502.88 4916.84 1507.22 4914.53C1511.55 4912.2 1514.91 4908.87 1517.27 4904.53C1519.64 4900.18 1520.82 4894.97 1520.82 4888.91C1520.82 4882.85 1519.63 4877.65 1517.25 4873.31C1514.88 4868.96 1511.51 4865.62 1507.13 4863.31C1502.78 4860.98 1497.6 4859.82 1491.62 4859.82H1469.46ZM1528.13 4859.82V4918H1569.95V4905.27H1543.93V4895.27H1567.91V4882.55H1543.93V4872.55H1570.06V4859.82H1528.13ZM1575.97 4859.82L1595.17 4918H1616.76L1635.97 4859.82H1618.13L1606.19 4900.84H1605.74L1593.81 4859.82H1575.97ZM1641.57 4859.82V4918H1683.39V4905.27H1657.37V4895.27H1681.34V4882.55H1657.37V4872.55H1683.5V4859.82H1641.57ZM1691.34 4859.82V4918H1730.65V4905.27H1707.13V4859.82H1691.34ZM1798.45 4859.82V4918H1814.24V4900.73H1822.99C1827.42 4900.73 1831.3 4899.9 1834.61 4898.26C1837.94 4896.61 1840.53 4894.26 1842.37 4891.21C1844.22 4888.16 1845.15 4884.55 1845.15 4880.39C1845.15 4876.26 1844.25 4872.65 1842.45 4869.56C1840.65 4866.48 1838.13 4864.08 1834.89 4862.38C1831.66 4860.67 1827.88 4859.82 1823.56 4859.82H1798.45ZM1850.95 4859.82V4918H1892.76V4905.27H1866.74V4895.27H1890.72V4882.55H1866.74V4872.55H1892.88V4859.82H1850.95ZM1900.71 4859.82V4918H1916.51V4898.8H1921.97L1932.19 4918H1949.35L1937.53 4896.31C1940.55 4894.86 1942.92 4892.8 1944.63 4890.13C1946.49 4887.27 1947.42 4883.76 1947.42 4879.59C1947.42 4875.46 1946.52 4871.92 1944.72 4868.97C1942.92 4866.01 1940.4 4863.75 1937.16 4862.18C1933.92 4860.6 1930.14 4859.82 1925.82 4859.82H1900.71ZM1068.7 4872.77C1071.31 4872.77 1073.51 4873.4 1075.29 4874.65C1077.09 4875.88 1078.45 4877.7 1079.35 4880.1C1080.28 4882.49 1080.75 4885.42 1080.75 4888.91C1080.75 4892.39 1080.28 4895.34 1079.35 4897.74C1078.45 4900.13 1077.09 4901.95 1075.29 4903.2C1073.51 4904.43 1071.31 4905.05 1068.7 4905.05C1066.09 4905.05 1063.88 4904.43 1062.08 4903.2C1060.3 4901.95 1058.95 4900.13 1058.02 4897.74C1057.11 4895.34 1056.66 4892.39 1056.66 4888.91C1056.66 4885.42 1057.11 4882.49 1058.02 4880.1C1058.95 4877.7 1060.3 4875.88 1062.08 4874.65C1063.88 4873.4 1066.09 4872.77 1068.7 4872.77ZM1762.84 4872.77C1765.46 4872.77 1767.65 4873.4 1769.43 4874.65C1771.23 4875.88 1772.59 4877.7 1773.5 4880.1C1774.42 4882.49 1774.89 4885.42 1774.89 4888.91C1774.89 4892.39 1774.42 4895.34 1773.5 4897.74C1772.59 4900.13 1771.23 4901.95 1769.43 4903.2C1767.65 4904.43 1765.46 4905.05 1762.84 4905.05C1760.23 4905.05 1758.02 4904.43 1756.22 4903.2C1754.44 4901.95 1753.09 4900.13 1752.16 4897.74C1751.25 4895.34 1750.8 4892.39 1750.8 4888.91C1750.8 4885.42 1751.25 4882.49 1752.16 4880.1C1753.09 4877.7 1754.44 4875.88 1756.22 4874.65C1758.02 4873.4 1760.23 4872.77 1762.84 4872.77ZM1490.82 4873.23C1493.85 4873.23 1496.41 4873.69 1498.5 4874.62C1500.6 4875.55 1502.19 4877.15 1503.27 4879.42C1504.37 4881.69 1504.92 4884.86 1504.92 4888.91C1504.92 4892.96 1504.38 4896.12 1503.3 4898.4C1502.24 4900.67 1500.68 4902.27 1498.64 4903.2C1496.61 4904.13 1494.16 4904.59 1491.28 4904.59H1485.26V4873.23H1490.82ZM1314.94 4875.84L1320.74 4895.05H1308.69L1314.49 4875.84H1314.94ZM1819.81 4872.43C1821.66 4872.43 1823.25 4872.75 1824.55 4873.4C1825.88 4874.02 1826.89 4874.93 1827.59 4876.12C1828.31 4877.3 1828.67 4878.72 1828.67 4880.39C1828.67 4882.03 1828.31 4883.46 1827.59 4884.68C1826.89 4885.89 1825.88 4886.83 1824.55 4887.49C1823.25 4888.13 1821.66 4888.45 1819.81 4888.45H1814.24V4872.43H1819.81ZM1922.07 4872.43C1923.93 4872.43 1925.51 4872.69 1926.82 4873.2C1928.14 4873.69 1929.16 4874.47 1929.86 4875.53C1930.58 4876.57 1930.94 4877.92 1930.94 4879.59C1930.94 4881.24 1930.58 4882.57 1929.86 4883.6C1929.16 4884.62 1928.14 4885.37 1926.82 4885.84C1925.51 4886.3 1923.93 4886.52 1922.07 4886.52H1916.51V4872.43H1922.07ZM1371.68 4872.43C1373.54 4872.43 1375.12 4872.69 1376.43 4873.2C1377.75 4873.69 1378.77 4874.47 1379.47 4875.53C1380.19 4876.57 1380.55 4877.92 1380.55 4879.59C1380.55 4881.24 1380.19 4882.57 1379.47 4883.6C1378.77 4884.62 1377.75 4885.37 1376.43 4885.84C1375.12 4886.3 1373.54 4886.52 1371.68 4886.52H1366.12V4872.43H1371.68ZM646.35 4777.83C646.307 4781.2 645.816 4784.04 644.879 4786.34C643.941 4788.6 642.557 4790.3 640.725 4791.45C638.935 4792.6 636.718 4793.18 634.076 4793.18C631.477 4793.18 629.261 4792.62 627.429 4791.51C625.639 4790.36 624.233 4788.66 623.21 4786.4C622.23 4784.14 621.676 4781.37 621.548 4778.09H586.009C585.966 4788.15 588.011 4796.33 592.145 4802.64C596.278 4808.9 601.818 4813.5 608.764 4816.44C615.71 4819.34 623.38 4820.79 631.775 4820.79C641.449 4820.79 649.993 4819 657.407 4815.42C664.865 4811.8 670.703 4806.77 674.922 4800.33C679.183 4793.86 681.335 4786.36 681.378 4777.83V4688.09H646.35V4777.83ZM897.972 4686.3C886.211 4686.3 875.557 4688.88 866.012 4694.04C856.466 4699.15 848.881 4706.71 843.256 4716.73C837.631 4726.7 834.818 4738.97 834.818 4753.55C834.818 4768.03 837.567 4780.29 843.064 4790.3C848.604 4800.31 856.125 4807.9 865.628 4813.06C875.173 4818.21 885.955 4820.79 897.972 4820.79C907.56 4820.79 915.976 4819.32 923.221 4816.38C930.465 4813.44 936.538 4809.56 941.438 4804.75C946.382 4799.89 950.195 4794.6 952.88 4788.89C955.565 4783.14 957.12 4777.49 957.546 4771.95L921.495 4771.7C921.069 4774.51 920.238 4777.05 919.002 4779.31C917.809 4781.52 916.253 4783.42 914.336 4784.99C912.418 4786.57 910.16 4787.79 907.561 4788.64C904.961 4789.45 902.02 4789.85 898.739 4789.85C892.986 4789.85 888.065 4788.51 883.974 4785.83C879.883 4783.1 876.75 4779.05 874.577 4773.68C872.447 4768.27 871.381 4761.56 871.381 4753.55C871.381 4745.96 872.426 4739.46 874.514 4734.05C876.644 4728.64 879.755 4724.48 883.846 4721.58C887.979 4718.69 893.029 4717.24 898.995 4717.24C902.404 4717.24 905.451 4717.73 908.136 4718.71C910.82 4719.65 913.1 4721.01 914.975 4722.8C916.892 4724.55 918.384 4726.63 919.449 4729.06C920.557 4731.49 921.239 4734.2 921.495 4737.18H957.546C956.864 4729.04 954.925 4721.82 951.729 4715.51C948.534 4709.21 944.315 4703.9 939.073 4699.6C933.832 4695.25 927.738 4691.95 920.792 4689.69C913.846 4687.43 906.239 4686.3 897.972 4686.3ZM1812.87 4686.3C1802.51 4686.3 1793.33 4688.05 1785.32 4691.54C1777.35 4695.04 1771.1 4699.92 1766.59 4706.18C1762.11 4712.4 1759.9 4719.67 1759.94 4727.98C1759.9 4738.2 1763.2 4746.28 1769.85 4752.2C1776.54 4758.08 1785.68 4762.28 1797.27 4764.8L1810.31 4767.61C1815.17 4768.67 1819.02 4769.82 1821.88 4771.06C1824.73 4772.25 1826.78 4773.62 1828.01 4775.15C1829.29 4776.64 1829.95 4778.39 1830 4780.39C1829.95 4782.52 1829.27 4784.42 1827.95 4786.08C1826.63 4787.74 1824.69 4789.04 1822.13 4789.98C1819.58 4790.92 1816.4 4791.39 1812.61 4791.39C1808.09 4791.39 1804.19 4790.68 1800.91 4789.28C1797.67 4787.87 1795.16 4785.8 1793.37 4783.08C1791.58 4780.35 1790.58 4776.98 1790.37 4772.98H1756.62C1756.66 4783.93 1759 4792.92 1763.65 4799.95C1768.33 4806.94 1774.9 4812.12 1783.33 4815.48C1791.81 4818.85 1801.74 4820.53 1813.12 4820.53C1824.2 4820.53 1833.68 4818.98 1841.57 4815.87C1849.49 4812.76 1855.59 4808.22 1859.85 4802.25C1864.11 4796.29 1866.26 4789 1866.3 4780.39C1866.26 4775.41 1865.45 4770.8 1863.87 4766.58C1862.34 4762.37 1859.93 4758.57 1856.65 4755.21C1853.37 4751.8 1849.15 4748.84 1844 4746.32C1838.84 4743.81 1832.64 4741.78 1825.39 4740.25L1814.66 4737.95C1811.54 4737.31 1808.86 4736.59 1806.6 4735.78C1804.34 4734.97 1802.49 4734.07 1801.04 4733.09C1799.59 4732.07 1798.53 4730.94 1797.84 4729.7C1797.21 4728.42 1796.93 4727 1797.01 4725.42C1797.06 4723.5 1797.63 4721.8 1798.74 4720.31C1799.85 4718.82 1801.55 4717.64 1803.85 4716.79C1806.2 4715.9 1809.2 4715.45 1812.87 4715.45C1818.62 4715.45 1822.9 4716.64 1825.71 4719.03C1828.57 4721.41 1830.17 4724.74 1830.51 4729H1864.51C1864.47 4720.43 1862.34 4712.96 1858.12 4706.56C1853.94 4700.13 1848 4695.14 1840.29 4691.61C1832.57 4688.07 1823.43 4686.3 1812.87 4686.3ZM693.874 4819H732.227L739.791 4793.94H782.957L790.521 4819H828.874L785.664 4688.09H737.084L693.874 4819ZM973.67 4819H1009.21V4785.25L1020.97 4769.91L1050.37 4819H1092.82L1047.56 4746.39L1091.79 4688.09H1050.37L1011 4741.02H1009.21V4688.09H973.67V4819ZM1138.2 4819H1173.74V4780.14H1193.43C1203.4 4780.14 1212.11 4778.28 1219.57 4774.58C1227.07 4770.87 1232.89 4765.58 1237.02 4758.72C1241.2 4751.86 1243.29 4743.74 1243.29 4734.37C1243.29 4725.08 1241.26 4716.96 1237.21 4710.02C1233.17 4703.07 1227.5 4697.68 1220.21 4693.84C1212.92 4690.01 1204.42 4688.09 1194.71 4688.09H1138.2V4819ZM1256.33 4819H1350.42V4790.36H1291.87V4767.86H1345.81V4739.23H1291.87V4716.73H1350.67V4688.09H1256.33V4819ZM1364.72 4716.73H1404.09V4819H1439.12V4716.73H1478.5V4688.09H1364.72V4716.73ZM1491.87 4819H1585.96V4790.36H1527.41V4767.86H1581.36V4739.23H1527.41V4716.73H1586.22V4688.09H1491.87V4819ZM1603.85 4819H1639.39V4775.79H1651.69L1674.67 4819H1713.28L1686.69 4770.19C1693.48 4766.93 1698.81 4762.3 1702.67 4756.29C1706.84 4749.86 1708.93 4741.95 1708.93 4732.58C1708.93 4723.29 1706.91 4715.32 1702.86 4708.67C1698.81 4702.03 1693.14 4696.93 1685.86 4693.4C1678.57 4689.86 1670.07 4688.09 1660.35 4688.09H1603.85V4819ZM1879.82 4819H1914.59V4742.81H1915.62L1944.77 4817.98H1965.73L1994.88 4743.32H1995.9V4819H2030.67V4688.09H1986.44L1956.02 4762.24H1954.48L1924.06 4688.09H1879.82V4819ZM2047.52 4819H2083.06V4688.09H2047.52V4819ZM2096.32 4716.73H2135.7V4819H2170.72V4716.73H2210.1V4688.09H2096.32V4716.73ZM2223.47 4819H2259.01V4767.86H2306.06V4819H2341.6V4688.09H2306.06V4739.23H2259.01V4688.09H2223.47V4819ZM774.931 4767.35H747.817L760.862 4724.14H761.886L774.931 4767.35ZM1186.27 4716.47C1190.45 4716.47 1194 4717.2 1196.94 4718.64C1199.93 4720.05 1202.21 4722.1 1203.78 4724.78C1205.4 4727.42 1206.21 4730.62 1206.21 4734.37C1206.21 4738.08 1205.4 4741.29 1203.78 4744.02C1202.21 4746.75 1199.93 4748.86 1196.94 4750.35C1194 4751.8 1190.45 4752.52 1186.27 4752.52H1173.74V4716.47H1186.27ZM1651.91 4716.47C1656.09 4716.47 1659.65 4717.05 1662.59 4718.2C1665.57 4719.31 1667.85 4721.05 1669.43 4723.44C1671.05 4725.78 1671.86 4728.83 1671.86 4732.58C1671.86 4736.29 1671.05 4739.29 1669.43 4741.59C1667.85 4743.89 1665.57 4745.58 1662.59 4746.64C1659.65 4747.66 1656.09 4748.18 1651.91 4748.18H1639.39V4716.47H1651.91Z" fill="black"/>
<rect x="343" width="2160" height="4245" fill="black"/>
<rect x="343" y="5246" width="2160" height="4262" fill="black"/>
<rect width="477" height="9508" fill="black"/>
<rect x="2431" width="415" height="9508" fill="black"/>
</svg>
