<svg y="0px" x="0px" viewBox="2.088 1.9679999999999997 19.919999999999998 19.92" data-name="Layer 1" xmlns="http://www.w3.org/2000/svg" style="max-height: 500px" width="19.919999999999998" height="19.92"><title>BBUI</title><path d="M12.58,12.09a.75.75,0,0,0,.53-.22l7.06-7.06V8.46a.75.75,0,0,0,1.5,0V3a.75.75,0,0,0-.75-.75H15.46a.75.75,0,0,0,0,1.5h3.65L12,10.81a.75.75,0,0,0,.53,1.28Z"/><path d="M21,12.81a.75.75,0,0,0-.75.75v6.2a.49.49,0,0,1-.49.49H4.24a.49.49,0,0,1-.49-.49V4.24a.49.49,0,0,1,.49-.49h5.87a.75.75,0,0,0,0-1.5H4.24a2,2,0,0,0-2,2V19.76a2,2,0,0,0,2,2H19.76a2,2,0,0,0,2-2v-6.2A.75.75,0,0,0,21,12.81Z"/><text font-family="'Helvetica Neue', Helvetica, Arial-Unicode, Arial, Sans-serif" font-weight="bold" font-size="5px" fill="#000000" y="39" x="0">Created by Brandy Bora</text><text font-family="'Helvetica Neue', Helvetica, Arial-Unicode, Arial, Sans-serif" font-weight="bold" font-size="5px" fill="#000000" y="44" x="0">from the Noun Project</text></svg>