{
  "accessors": [
    {
      "bufferView": 1,
      "componentType": 5126,
      "count": 372,
      "max": [
        0.05516236647963524,
        0.04556791111826897,
        3.1419631341123022e-09
      ],
      "min": [
        -0.04483763501048088,
        -0.054432086646556854,
        -0.002499996917322278
      ],
      "type": "VEC3"
    },
    {
      "bufferView": 1,
      "byteOffset": 4464,
      "componentType": 5126,
      "count": 372,
      "max": [
        0.9702776670455933,
        0.9616748094558716,
        1.0
      ],
      "min": [
        -0.9702776670455933,
        -0.9616748094558716,
        -1.0
      ],
      "type": "VEC3"
    },
    {
      "bufferView": 0,
      "componentType": 5125,
      "count": 1080,
      "type": "SCALAR"
    }
  ],
  "asset": {
    "extras": {
      "author": "Alex human (https://sketchfab.com/alex-human)",
      "license": "CC-BY-4.0 (http://creativecommons.org/licenses/by/4.0/)",
      "source": "https://sketchfab.com/3d-models/threejs-logo-3d-model-f53e7a3e686d434483477471aca944b7",
      "title": "Three.js Logo — 3D Model"
    },
    "generator": "Sketchfab-16.99.0",
    "version": "2.0"
  },
  "bufferViews": [
    {
      "buffer": 0,
      "byteLength": 4320,
      "name": "floatBufferViews",
      "target": 34963
    },
    {
      "buffer": 0,
      "byteLength": 8928,
      "byteOffset": 4320,
      "byteStride": 12,
      "name": "floatBufferViews",
      "target": 34962
    }
  ],
  "buffers": [
    {
      "byteLength": 13248,
      "uri": "scene.bin"
    }
  ],
  "materials": [
    {
      "doubleSided": true,
      "name": "black",
      "pbrMetallicRoughness": {
        "baseColorFactor": [
          0.0,
          0.0,
          0.0,
          1.0
        ],
        "roughnessFactor": 0.5
      }
    }
  ],
  "meshes": [
    {
      "name": "Object_0",
      "primitives": [
        {
          "attributes": {
            "NORMAL": 1,
            "POSITION": 0
          },
          "indices": 2,
          "material": 0,
          "mode": 4
        }
      ]
    }
  ],
  "nodes": [
    {
      "children": [
        1
      ],
      "matrix": [
        1.0,
        0.0,
        0.0,
        0.0,
        0.0,
        2.220446049250313e-16,
        -1.0,
        0.0,
        0.0,
        1.0,
        2.220446049250313e-16,
        0.0,
        0.0,
        0.0,
        0.0,
        1.0
      ],
      "name": "Sketchfab_model"
    },
    {
      "children": [
        2
      ],
      "name": "root"
    },
    {
      "children": [
        3
      ],
      "matrix": [
        1.0,
        0.0,
        0.0,
        0.0,
        0.0,
        2.220446049250313e-16,
        1.0,
        0.0,
        0.0,
        -1.0,
        2.220446049250313e-16,
        0.0,
        0.0,
        0.0,
        0.0,
        1.0
      ],
      "name": "GLTF_SceneRootNode"
    },
    {
      "children": [
        4
      ],
      "name": "three_0"
    },
    {
      "mesh": 0,
      "name": "Object_4"
    }
  ],
  "scene": 0,
  "scenes": [
    {
      "name": "Sketchfab_Scene",
      "nodes": [
        0
      ]
    }
  ]
}
